# xmcd
#
# Track frame offsets: 
#        207
#        15382
#        35905
#        74207
#        94132
#        108472
#        128465
#        142970
#        158647
#        177155
#
# Disc length: 2836 seconds
#
# Revision: 3
# Processed by: cddbd v1.5.2PL0 Copyright (c) Steve Scherf et al.
# Submitted via: ExactAudioCopy v0.95b4
#
DISCID=830b120a
DTITLE=George Thorogood and The Destroyers - George Thorogood and The Dest
DTITLE=royers
DYEAR=1977
DGENRE=Blues
TTITLE0=You Got To Lose
TTITLE1=Madison Blues
TTITLE2=One Bourbon, One Scotch, One Beer
TTITLE3=Kind Hearted Woman
TTITLE4=Can't Stop Lovin'
TTITLE5=Ride On Josephine
TTITLE6=Homesick Boy
TTITLE7=John Hardy
TTITLE8=I'll Change My Style
TTITLE9=Delaware Slide
EXTD=
EXTT0=
EXTT1=
EXTT2=
EXTT3=
EXTT4=
EXTT5=
EXTT6=
EXTT7=
EXTT8=
EXTT9=
PLAYORDER=
